# xmcd
#
# Track frame offsets: 
#        183
#        17010
#        57585
#
# Disc length: 1116 seconds
#
# Revision: 3
# Processed by: cddbd v1.5.2PL0 Copyright (c) Steve Scherf et al.
# Submitted via: ExactAudioCopy v1.0b6
#
DISCID=20045a03
DTITLE=The Art Of Noise - Shades Of Paranoimia (The Carl Cox Mix) [CD 
DTITLE=1)
DYEAR=1992
DGENRE=Techno
TTITLE0=Shades Of Paranoimia (The Carl Cox Mix)
TTITLE1=Instruments Of Lightness (The Sequel) (The S1000 "Power-Qqatsi
TTITLE1=Dub" Mix)
TTITLE2=Roller 20 (The Rhythmatic Mix)
EXTD=
EXTT0=
EXTT1=
EXTT2=
PLAYORDER=
